# xmcd CD database file
#
# Track frame offsets:
#	150
#	25483
#	46461
#	66294
#	91748
#	126230
#	146739
#	175312
#	197757
#	224173
#
# Disc length: 3370 seconds
#
# Revision: 0
# Processed by: cddbd v1.5.2PL0 Copyright (c) Steve Scherf et al.
# Submitted via: NeoAudio 9.9.9
#
DISCID=9e0d280a
DTITLE=Air French Band - 1000 Hz. Legend
DYEAR=1900
DGENRE=New Age
TTITLE0=Electronic Performers
TTITLE1=How Does It Make You Feel
TTITLE2=Radio #1
TTITLE3=The Vagabond
TTITLE4=Radian
TTITLE5=Lucky and Unhappy
TTITLE6=Sex Born Poison
TTITLE7=People in the City
TTITLE8=Wonder Milky Bitch
TTITLE9=Don't Be Light
EXTD=
EXTT0=
EXTT1=
EXTT2=
EXTT3=
EXTT4=
EXTT5=
EXTT6=
EXTT7=
EXTT8=
EXTT9=
PLAYORDER=
